<?xml version="1.0" encoding="utf-8"?>
<!-- Generator: Adobe Illustrator 27.0.0, SVG Export Plug-In . SVG Version: 6.00 Build 0)  -->
<svg version="1.1" id="レイヤー_1" xmlns="http://www.w3.org/2000/svg" xmlns:xlink="http://www.w3.org/1999/xlink" x="0px"
     y="0px" viewBox="0 0 680 26" style="enable-background:new 0 0 680 26;" xml:space="preserve">
  <g transform="rotate(90 340 340)">
    <g>
      <path d="M22.59,23.69h-4.5v-5.36h-1.5v5.15h-4.18v-5.15H7.27V13.3h15.33V23.69z M18.7,23.08h3.28v-9.17H7.87v3.81h5.15v5.15h2.97 v-5.15h2.71V23.08z"/>
      <path d="M14.93,56.07c-1.21,0-2.34-0.21-3.34-0.62c-1.01-0.41-1.89-1-2.64-1.76l0,0c-0.74-0.76-1.32-1.67-1.72-2.7 c-0.4-1.03-0.6-2.18-0.6-3.42c0-1.24,0.2-2.39,0.6-3.42c0.4-1.04,0.98-1.94,1.72-2.7c0.74-0.76,1.63-1.35,2.64-1.76 c1.01-0.41,2.13-0.62,3.34-0.62c1.21,0,2.33,0.22,3.32,0.66c0.99,0.44,1.85,1.05,2.56,1.82c0.71,0.77,1.26,1.68,1.64,2.71 c0.38,1.03,0.57,2.14,0.57,3.32c0,1.21-0.19,2.34-0.57,3.36c-0.38,1.03-0.93,1.94-1.64,2.71c-0.71,0.77-1.57,1.37-2.56,1.8 C17.25,55.85,16.14,56.07,14.93,56.07z"/>
      <!-- ... 나머지 path들은 동일하게 유지 ... -->
		<path d="M22.59,83.08H18.3v-6.2h-1.07v5.78h-4.18v-5.78h-1.5v6.2H7.27V71.86h15.33V83.08z M18.91,82.48h3.07V72.47H7.87v10.01
			h3.07v-6.2h2.71v5.78h2.97v-5.78h2.29V82.48z"/>
		<path d="M11.76,110.73h-4.5V99.51h15.33v5.23H11.76V110.73z M7.87,110.12h3.28v-5.99h10.83v-4.02H7.87V110.12z"/>
		<path d="M9.84,136.95l-2.87-2.88l3.17-3.09l-3.17-3.09l2.87-2.87l3.09,3.17l3.09-3.17l2.88,2.87l-3.17,3.09l3.17,3.09l-2.88,2.88
			l-3.09-3.17L9.84,136.95z M12.93,132.91l3.09,3.18l2-2l-3.18-3.09l3.18-3.09l-2-2l-3.09,3.18l-3.09-3.18l-2,2l3.18,3.09
			l-3.18,3.09l2,2L12.93,132.91z"/>
		<path d="M22.59,167.31H6.21l7.4-9.57H7.27v-5.02h16.38l-7.4,9.57h6.35V167.31z M7.45,166.7h14.53v-3.81H15l7.4-9.57H7.87v3.81
			h6.98L7.45,166.7z"/>
		<path d="M22.59,189.28H7.27v-5.34h15.33V189.28z M7.87,188.68h14.11v-4.12H7.87V188.68z"/>
		<path d="M22.59,211.68H6.52c-0.83,0-1.56-0.18-2.14-0.53c-0.58-0.35-1.05-0.83-1.4-1.41c-0.34-0.57-0.59-1.23-0.74-1.96
			c-0.15-0.72-0.23-1.48-0.23-2.25c0-0.66,0.07-1.31,0.2-1.93c0.13-0.61,0.29-1.19,0.49-1.71c0.19-0.52,0.4-0.99,0.62-1.39
			l0.17-0.32l3.67,2.94l-0.14,0.23c-0.14,0.23-0.29,0.51-0.42,0.82c-0.12,0.28-0.18,0.53-0.18,0.75c0,0.25,0.09,0.48,0.28,0.71
			c0.17,0.21,0.5,0.31,1,0.31h14.92V211.68z M3.68,201.1c-0.14,0.3-0.28,0.63-0.42,0.99c-0.18,0.5-0.34,1.04-0.46,1.63
			c-0.12,0.58-0.18,1.19-0.18,1.81c0,0.73,0.07,1.44,0.21,2.12c0.14,0.67,0.37,1.26,0.67,1.78c0.29,0.5,0.69,0.9,1.19,1.2
			c0.49,0.29,1.11,0.44,1.83,0.44h15.47v-4.54H7.67c-0.68,0-1.17-0.18-1.46-0.53c-0.28-0.33-0.42-0.7-0.42-1.1
			c0-0.31,0.08-0.64,0.24-1c0.11-0.24,0.21-0.46,0.33-0.66L3.68,201.1z"/>
		<path d="M22.59,233.65H7.27v-5.34h15.33V233.65z M7.87,233.04h14.11v-4.12H7.87V233.04z"/>
		<path d="M22.59,255.62H7.27v-5.34h15.33V255.62z M7.87,255.01h14.11v-4.12H7.87V255.01z"/>
		<path d="M7.27,286.37v-6.11l4.62-2.62v-0.16H7.27v-5.23h15.33v6.51c0,1.48-0.23,2.71-0.68,3.65c-0.46,0.96-1.11,1.67-1.91,2.13
			c-0.8,0.45-1.73,0.68-2.76,0.68c-1.02,0-1.94-0.23-2.75-0.68c-0.72-0.41-1.32-1.02-1.76-1.82L7.27,286.37z M7.87,280.62v4.62
			l5.1-3.4l0.15,0.32c0.4,0.84,0.97,1.47,1.67,1.86c0.71,0.4,1.54,0.6,2.45,0.6c0.92,0,1.75-0.2,2.46-0.6
			c0.7-0.39,1.26-1.02,1.66-1.87c0.41-0.86,0.62-2,0.62-3.39v-5.9H7.87v4.02h4.62V278L7.87,280.62z M17.03,280.39
			c-0.34,0-0.64-0.08-0.9-0.25c-0.26-0.17-0.46-0.41-0.59-0.72c-0.12-0.29-0.18-0.65-0.18-1.08v-1.46h3.34v1.46
			c0,0.44-0.06,0.79-0.18,1.08c-0.13,0.31-0.32,0.55-0.58,0.71C17.69,280.3,17.38,280.39,17.03,280.39z M15.97,277.48v0.85
			c0,0.35,0.05,0.64,0.13,0.85c0.08,0.2,0.2,0.34,0.36,0.44c0.33,0.21,0.85,0.2,1.15,0c0.15-0.1,0.27-0.24,0.35-0.44
			c0.09-0.21,0.14-0.5,0.14-0.85v-0.85H15.97z"/>
		<path d="M14.93,317.43c-1.21,0-2.34-0.21-3.34-0.62c-1.01-0.41-1.89-1-2.64-1.76c-0.74-0.76-1.32-1.67-1.72-2.7
			c-0.4-1.03-0.6-2.18-0.6-3.42s0.2-2.39,0.6-3.42c0.4-1.04,0.98-1.94,1.72-2.7c0.74-0.75,1.63-1.35,2.64-1.76
			c1-0.41,2.13-0.62,3.34-0.62c1.21,0,2.33,0.22,3.32,0.66c0.99,0.43,1.85,1.05,2.56,1.82c0.71,0.77,1.26,1.68,1.64,2.71
			c0.38,1.02,0.57,2.14,0.57,3.32c0,1.21-0.19,2.34-0.56,3.36c-0.38,1.03-0.93,1.94-1.64,2.71c-0.71,0.77-1.58,1.38-2.56,1.8
			C17.26,317.22,16.14,317.43,14.93,317.43z M14.93,301.03c-1.13,0-2.18,0.19-3.11,0.58c-0.93,0.38-1.75,0.93-2.43,1.62
			c-0.68,0.7-1.22,1.54-1.58,2.49c-0.37,0.96-0.56,2.04-0.56,3.2s0.19,2.24,0.56,3.2c0.37,0.96,0.9,1.8,1.58,2.49
			c0.68,0.7,1.5,1.24,2.43,1.62c0.93,0.38,1.98,0.58,3.11,0.58c1.13,0,2.16-0.2,3.08-0.59c0.91-0.39,1.7-0.94,2.36-1.65
			c0.66-0.71,1.17-1.55,1.52-2.51c0.35-0.96,0.53-2.02,0.53-3.15c0-1.11-0.18-2.15-0.53-3.11c-0.35-0.95-0.86-1.79-1.52-2.51
			c-0.66-0.71-1.45-1.27-2.36-1.67C17.09,301.24,16.06,301.03,14.93,301.03z M14.93,312.53c-0.58,0-1.11-0.08-1.58-0.24
			c-0.48-0.16-0.9-0.4-1.24-0.72c-0.34-0.31-0.62-0.7-0.81-1.14c-0.19-0.45-0.29-0.95-0.29-1.51c0-0.56,0.1-1.06,0.29-1.51l0,0
			c0.19-0.45,0.46-0.83,0.81-1.15c0.35-0.32,0.76-0.56,1.24-0.72c0.94-0.31,2.21-0.32,3.16,0c0.48,0.16,0.9,0.4,1.24,0.71
			c0.35,0.31,0.62,0.7,0.81,1.15c0.19,0.45,0.29,0.95,0.29,1.51c0,0.58-0.1,1.1-0.29,1.55c-0.19,0.45-0.47,0.83-0.81,1.14
			c-0.35,0.31-0.76,0.54-1.25,0.69C16.03,312.46,15.5,312.53,14.93,312.53z M11.85,307.66c-0.16,0.37-0.24,0.79-0.24,1.27
			s0.08,0.9,0.24,1.27c0.16,0.36,0.38,0.68,0.66,0.94c0.28,0.26,0.63,0.46,1.03,0.59c0.82,0.27,1.96,0.27,2.78,0.01
			c0.4-0.13,0.74-0.32,1.03-0.57c0.28-0.25,0.5-0.56,0.66-0.92c0.16-0.37,0.24-0.81,0.24-1.31c0-0.47-0.08-0.9-0.24-1.27
			c-0.16-0.37-0.38-0.68-0.66-0.94c-0.28-0.26-0.63-0.46-1.03-0.59c-0.82-0.28-1.95-0.27-2.77,0c-0.4,0.13-0.74,0.33-1.03,0.59
			C12.23,306.98,12.01,307.3,11.85,307.66L11.85,307.66z"/>
		<path d="M22.59,346.37l-10.83-6.48v5.3h-4.5v-13.56l10.62,6.33v-4.73h4.71V346.37z M11.16,338.82l10.83,6.48v-11.46h-3.49v5.19
			L7.87,332.7v11.88h3.28V338.82z"/>
		<path d="M7.27,377.35v-5.94l1.89-1.06v-3.64l-1.89-1.04v-5.94l16.73,8.81L7.27,377.35z M7.87,371.76v4.58l14.81-7.8l-14.81-7.8
			v4.57l1.89,1.04v4.36L7.87,371.76z M12.48,370.26v-3.45l3.87,1.72L12.48,370.26z M13.09,367.75v1.57l1.77-0.79L13.09,367.75z"/>
		<path d="M7.27,410.53v-5.57l5.54-0.7l-4.37-3.34l4.37-3.34l-5.54-0.7v-5.57l16.46,2.91l-8.17,6.7l8.17,6.7L7.27,410.53z
			 M7.87,405.5v4.31l14.45-2.56l-7.72-6.33l7.72-6.33l-14.45-2.56v4.31l6.48,0.82l-4.92,3.76l4.92,3.76L7.87,405.5z"/>
		<path d="M22.59,439.72H12.41c-1.09,0-2.03-0.18-2.79-0.54c-0.76-0.36-1.39-0.87-1.86-1.51c-0.46-0.63-0.8-1.36-1.02-2.17
			c-0.21-0.8-0.31-1.66-0.31-2.55c0-0.89,0.11-1.75,0.31-2.55c0.21-0.81,0.55-1.54,1.02-2.17c0.47-0.64,1.1-1.15,1.86-1.51
			c0.76-0.36,1.7-0.54,2.79-0.54h10.19v5.23h-9.77c-0.35,0-0.66,0.06-0.92,0.17c-0.25,0.11-0.43,0.27-0.57,0.49
			c-0.14,0.22-0.21,0.52-0.21,0.88s0.07,0.66,0.21,0.88c0.14,0.22,0.32,0.38,0.57,0.49c0.26,0.12,0.57,0.17,0.92,0.17h9.77V439.72z
			 M12.41,426.77c-1,0-1.85,0.16-2.53,0.49c-0.67,0.32-1.22,0.76-1.63,1.32c-0.42,0.57-0.72,1.23-0.92,1.97
			c-0.2,0.75-0.29,1.56-0.29,2.39s0.1,1.64,0.29,2.39c0.19,0.74,0.5,1.4,0.92,1.97c0.41,0.56,0.96,1,1.63,1.32
			c0.68,0.32,1.53,0.49,2.53,0.49h9.58v-4.02h-9.16c-0.43,0-0.82-0.08-1.16-0.22c-0.36-0.16-0.64-0.4-0.84-0.73
			c-0.2-0.32-0.3-0.72-0.3-1.2c0-0.48,0.1-0.88,0.3-1.2c0.2-0.33,0.48-0.57,0.84-0.73h0c0.34-0.15,0.73-0.22,1.16-0.22h9.16v-4.02
			H12.41z"/>
		<path d="M7.27,470.36v-6.11l4.62-2.62v-0.16H7.27v-5.23h15.33v6.51c0,1.48-0.23,2.71-0.68,3.65c-0.46,0.96-1.1,1.67-1.91,2.13
			c-0.8,0.45-1.73,0.68-2.76,0.68c-1.02,0-1.94-0.23-2.75-0.68c-0.72-0.41-1.32-1.02-1.76-1.82L7.27,470.36z M7.87,464.61v4.62
			l5.1-3.4l0.15,0.32c0.4,0.84,0.97,1.47,1.67,1.86c0.71,0.4,1.54,0.6,2.45,0.6c0.92,0,1.75-0.2,2.46-0.6
			c0.7-0.39,1.26-1.02,1.66-1.86c0.41-0.86,0.62-2,0.62-3.39v-5.9H7.87v4.02h4.62v1.12L7.87,464.61z M17.03,464.38
			c-0.34,0-0.64-0.08-0.9-0.25c-0.26-0.17-0.46-0.41-0.59-0.72c-0.12-0.29-0.18-0.65-0.18-1.08v-1.46h3.34v1.46
			c0,0.43-0.06,0.8-0.18,1.08c-0.13,0.31-0.32,0.55-0.58,0.71C17.69,464.3,17.38,464.38,17.03,464.38z M15.97,461.48v0.85
			c0,0.35,0.05,0.64,0.13,0.85c0.08,0.2,0.2,0.34,0.36,0.44c0.33,0.21,0.85,0.2,1.15,0c0.15-0.1,0.27-0.24,0.35-0.44
			c0.09-0.21,0.14-0.5,0.14-0.85v-0.85H15.97z"/>
		<path d="M7.27,501.1v-5.94l1.89-1.06v-3.64l-1.89-1.03v-5.94l16.73,8.81L7.27,501.1z M7.87,495.52v4.57l14.81-7.8l-14.81-7.8v4.57
			l1.89,1.03v4.36L7.87,495.52z M12.48,494.02v-3.45l3.87,1.72L12.48,494.02z M13.09,491.51v1.57l1.77-0.79L13.09,491.51z"/>
		<path d="M22.59,521.3H7.27v-5.34h15.33V521.3z M7.87,520.69h14.11v-4.12H7.87V520.69z"/>
		<path d="M22.59,571.67l-10.83-6.48v5.3h-4.5v-13.56l10.62,6.33v-4.73h4.71V571.67z M11.16,564.13l10.83,6.48v-11.46h-3.49v5.19
			l-10.62-6.33v11.88h3.28V564.13z"/>
		<path d="M22.59,600.27H12.41c-1.09,0-2.03-0.18-2.79-0.54l0,0c-0.77-0.36-1.39-0.87-1.86-1.51c-0.46-0.63-0.8-1.36-1.02-2.17
			c-0.21-0.8-0.31-1.66-0.31-2.55s0.11-1.74,0.31-2.55c0.21-0.81,0.55-1.54,1.02-2.17c0.47-0.64,1.09-1.15,1.86-1.51
			c0.76-0.36,1.7-0.54,2.79-0.54h10.19v5.23h-9.77c-0.35,0-0.66,0.06-0.92,0.17c-0.25,0.11-0.43,0.27-0.57,0.49
			c-0.14,0.22-0.21,0.52-0.21,0.88s0.07,0.66,0.21,0.88c0.14,0.22,0.32,0.38,0.57,0.49c0.26,0.12,0.57,0.17,0.92,0.17h9.77V600.27z
			 M9.88,599.18c0.68,0.32,1.53,0.49,2.53,0.49h9.58v-4.02h-9.16c-0.43,0-0.82-0.08-1.16-0.23c-0.36-0.16-0.64-0.4-0.84-0.73
			c-0.2-0.32-0.3-0.72-0.3-1.2s0.1-0.88,0.3-1.2c0.2-0.33,0.48-0.57,0.84-0.73c0.34-0.15,0.73-0.23,1.16-0.23h9.16v-4.02h-9.58
			c-1,0-1.85,0.16-2.53,0.49c-0.67,0.32-1.22,0.77-1.63,1.33c-0.42,0.57-0.72,1.23-0.92,1.97c-0.2,0.75-0.29,1.56-0.29,2.39
			s0.1,1.64,0.29,2.39c0.19,0.74,0.5,1.4,0.92,1.97C8.65,598.41,9.2,598.85,9.88,599.18L9.88,599.18z"/>
		<path d="M7.27,635.12v-5.57l5.54-0.7l-4.37-3.34l4.37-3.34l-5.54-0.7v-5.57l16.46,2.91l-8.17,6.7l8.17,6.7L7.27,635.12z
			 M7.87,630.09v4.31l14.45-2.56l-7.72-6.33l7.72-6.33l-14.45-2.56v4.31l6.48,0.82l-4.92,3.76l4.92,3.76L7.87,630.09z"/>
		<path d="M7.27,666.7v-5.94l1.89-1.06v-3.64l-1.89-1.03v-5.94l16.73,8.81L7.27,666.7z M7.87,661.12v4.58l14.81-7.8l-14.81-7.8v4.57
			l1.89,1.03v4.36L7.87,661.12z M12.48,659.61v-3.45l3.87,1.72L12.48,659.61z M13.09,657.1v1.57l1.77-0.79L13.09,657.1z"/>
	</g>
</g>
</svg>
